<svg width="200.00000000000003" height="200.00000000000003" xmlns="http://www.w3.org/2000/svg">

 <g>
  <title>Layer 1</title>
  <line stroke-linecap="undefined" stroke-linejoin="undefined" id="svg_1" y2="-3" x2="213.83333" y1="24" x1="218.83333" stroke="#000" fill="none"/>
  <line stroke-width="7" stroke-linecap="undefined" stroke-linejoin="undefined" id="svg_2" y2="70" x2="40" y1="150" x1="40" stroke="#000" fill="none"/>
  <line stroke-width="7" stroke="#000" stroke-linecap="undefined" stroke-linejoin="undefined" id="svg_3" y2="70" x2="160.16667" y1="150" x1="160" fill="none"/>
  <line stroke-width="7" stroke-linecap="undefined" stroke-linejoin="undefined" id="svg_4" y2="70" x2="170" y1="70" x1="30" stroke="#000" fill="none"/>
  <line stroke-width="7" stroke-linecap="undefined" stroke-linejoin="undefined" id="svg_5" y2="70" x2="170" y1="20" x1="100" stroke="#000" fill="none"/>
  <line stroke-width="7" stroke-linecap="undefined" stroke-linejoin="undefined" id="svg_6" y2="20" x2="100" y1="70" x1="30" stroke="#000" fill="none"/>
  <line stroke-width="7" stroke="#000" stroke-linecap="undefined" stroke-linejoin="undefined" id="svg_7" y2="150" x2="160" y1="150" x1="40" fill="none"/>
  <path stroke="#000" stroke-width="2" id="svg_22" d="m88.14236,141.64902c-1.32584,-2.08245 2.07671,-2.13819 1.54215,-4.44663c0.97735,-3.05899 3.51857,-4.91058 3.8928,-8.38666c-1.03066,-0.9661 -1.62343,-3.30258 0.3429,-3.02519c1.44199,-1.4604 1.26177,-4.44894 1.69542,-6.6421c0.40623,-3.5398 0.49822,-7.12257 0.67271,-10.69146c-1.66847,-0.17243 -3.37821,-0.05232 -5.00393,-0.62755c0.04676,-2.37346 3.35471,-1.46276 3.50527,-3.70239c2.40519,-0.05848 0.13322,-4.89199 -0.84626,-6.04519c-1.25373,-1.94537 -2.08878,-5.01635 -1.13568,-7.41885c1.36324,-1.21868 4.44565,-0.47686 4.30632,-3.67954c-0.92712,-0.71105 -2.10424,-0.25951 -3.14336,-0.38525c0.0639,-1.49341 0.12781,-2.98682 0.19171,-4.48023c1.37423,-0.14222 2.74845,-0.28445 4.12268,-0.42669c-0.69754,-0.97541 -1.74148,-1.69326 -2.00272,-3.07303c0.88856,-1.96529 3.03006,-1.79181 4.5642,-1.77323c1.49178,-0.13844 4.21168,1.20037 2.17829,3.35684c-0.16481,0.52957 -1.76877,1.84632 -0.77754,1.70277c1.26915,0 2.53829,0 3.80743,0c-0.00365,1.45994 -0.03282,2.93439 0.22201,4.36312c-0.96878,0.97073 -4.11027,-0.8292 -3.21579,2.16597c1.00718,1.25225 2.54972,1.2192 3.82719,1.7707c0.74513,0.10016 1.33788,0.36141 1.06936,1.53329c0.14005,2.17579 -0.26795,4.36451 -1.3795,6.01615c-0.78685,1.72345 -2.5541,3.881 -2.03094,5.87591c0.98981,-0.21678 1.78493,0.65765 0.99435,1.64102c0.81132,0.80824 3.66828,0.62315 3.05035,2.64662c-1.44748,0.64468 -3.00244,0.3761 -4.50418,0.44188c0.39986,5.52335 0.95273,11.04723 1.87654,16.45602c0.53977,1.2002 2.68396,2.12264 0.92425,3.68732c-0.65672,2.91383 1.44088,5.0956 2.75826,6.96577c1.44845,1.4596 0.74569,4.39645 2.79482,4.86484c1.61378,2.10333 -2.21561,2.04733 -3.19876,2.05192c-6.50858,0.09443 -13.02418,0.22653 -19.53021,-0.05566c-0.5326,-0.09044 -1.1906,-0.06975 -1.57017,-0.68052l0,0z" fill="none"/>
 </g>
</svg>